<?xml version="1.0" encoding="UTF-8" standalone="no"?>
<!DOCTYPE svg PUBLIC "-//W3C//DTD SVG 1.1//EN"
 "http://www.w3.org/Graphics/SVG/1.1/DTD/svg11.dtd">
<!-- Generated by graphviz version 2.44.1 (20200629.0846)
 -->
<!-- Title: dependencies Pages: 1 -->
<svg width="849pt" height="284pt"
 viewBox="0.00 0.00 849.00 284.00" xmlns="http://www.w3.org/2000/svg" xmlns:xlink="http://www.w3.org/1999/xlink">
<g id="graph0" class="graph" transform="scale(1 1) rotate(0) translate(4 280)">
<title>dependencies</title>
<polygon fill="white" stroke="transparent" points="-4,4 -4,-280 845,-280 845,4 -4,4"/>
<text text-anchor="start" x="399.51" y="-42.4" font-family="sans-serif" font-weight="bold" font-size="14.00">Legend</text>
<polygon fill="#ffffb3" stroke="transparent" points="186.5,-10 186.5,-30 206.5,-30 206.5,-10 186.5,-10"/>
<text text-anchor="start" x="210.13" y="-15.4" font-family="sans-serif" font-size="14.00"> &#160;Declarations</text>
<polygon fill="#8dd3c7" stroke="transparent" points="299.5,-10 299.5,-30 319.5,-30 319.5,-10 299.5,-10"/>
<text text-anchor="start" x="323.23" y="-15.4" font-family="sans-serif" font-size="14.00"> &#160;Module</text>
<polygon fill="#80b1d3" stroke="transparent" points="385.5,-10 385.5,-30 405.5,-30 405.5,-10 385.5,-10"/>
<text text-anchor="start" x="409.28" y="-15.4" font-family="sans-serif" font-size="14.00"> &#160;Bootstrap</text>
<polygon fill="#fdb462" stroke="transparent" points="482.5,-10 482.5,-30 502.5,-30 502.5,-10 482.5,-10"/>
<text text-anchor="start" x="506.17" y="-15.4" font-family="sans-serif" font-size="14.00"> &#160;Providers</text>
<polygon fill="#fb8072" stroke="transparent" points="578.5,-10 578.5,-30 598.5,-30 598.5,-10 578.5,-10"/>
<text text-anchor="start" x="602.23" y="-15.4" font-family="sans-serif" font-size="14.00"> &#160;Exports</text>
<g id="clust1" class="cluster">
<title>cluster_PetsModule</title>
<polygon fill="none" stroke="black" stroke-dasharray="1,5" points="8,-70 8,-268 833,-268 833,-70 8,-70"/>
</g>
<g id="clust9" class="cluster">
<title>cluster_PetsModule_providers</title>
<polygon fill="none" stroke="black" points="705,-78 705,-130 825,-130 825,-78 705,-78"/>
</g>
<g id="clust2" class="cluster">
<title>cluster_PetsModule_declarations</title>
<polygon fill="none" stroke="black" points="278,-78 278,-130 697,-130 697,-78 278,-78"/>
</g>
<g id="clust7" class="cluster">
<title>cluster_PetsModule_exports</title>
<polygon fill="none" stroke="black" points="203,-208 203,-260 631,-260 631,-208 203,-208"/>
</g>
<g id="clust6" class="cluster">
<title>cluster_PetsModule_imports</title>
<polygon fill="none" stroke="black" points="16,-78 16,-130 270,-130 270,-78 16,-78"/>
</g>
<!-- PetAddComponent -->
<g id="node1" class="node">
<title>PetAddComponent</title>
<polygon fill="#ffffb3" stroke="black" points="688.83,-122 565.17,-122 565.17,-86 688.83,-86 688.83,-122"/>
<text text-anchor="middle" x="627" y="-99.8" font-family="Times,serif" font-size="14.00">PetAddComponent</text>
</g>
<!-- PetsModule -->
<g id="node4" class="node">
<title>PetsModule</title>
<polygon fill="#8dd3c7" stroke="black" points="457.38,-187 454.38,-191 433.38,-191 430.38,-187 374.62,-187 374.62,-151 457.38,-151 457.38,-187"/>
<text text-anchor="middle" x="416" y="-164.8" font-family="Times,serif" font-size="14.00">PetsModule</text>
</g>
<!-- PetAddComponent&#45;&gt;PetsModule -->
<g id="edge1" class="edge">
<title>PetAddComponent&#45;&gt;PetsModule</title>
<path fill="none" stroke="black" d="M594.38,-122.03C594.38,-138.4 594.38,-160 594.38,-160 594.38,-160 467.82,-160 467.82,-160"/>
<polygon fill="black" stroke="black" points="467.82,-156.5 457.82,-160 467.82,-163.5 467.82,-156.5"/>
</g>
<!-- PetEditComponent -->
<g id="node2" class="node">
<title>PetEditComponent</title>
<polygon fill="#ffffb3" stroke="black" points="547.05,-122 424.95,-122 424.95,-86 547.05,-86 547.05,-122"/>
<text text-anchor="middle" x="486" y="-99.8" font-family="Times,serif" font-size="14.00">PetEditComponent</text>
</g>
<!-- PetEditComponent&#45;&gt;PetsModule -->
<g id="edge2" class="edge">
<title>PetEditComponent&#45;&gt;PetsModule</title>
<path fill="none" stroke="black" d="M441.08,-122.11C441.08,-122.11 441.08,-140.99 441.08,-140.99"/>
<polygon fill="black" stroke="black" points="437.58,-140.99 441.08,-150.99 444.58,-140.99 437.58,-140.99"/>
</g>
<!-- PetListComponent -->
<g id="node3" class="node">
<title>PetListComponent</title>
<polygon fill="#ffffb3" stroke="black" points="406.5,-122 285.5,-122 285.5,-86 406.5,-86 406.5,-122"/>
<text text-anchor="middle" x="346" y="-99.8" font-family="Times,serif" font-size="14.00">PetListComponent</text>
</g>
<!-- PetListComponent&#45;&gt;PetsModule -->
<g id="edge3" class="edge">
<title>PetListComponent&#45;&gt;PetsModule</title>
<path fill="none" stroke="black" d="M390.53,-122.11C390.53,-122.11 390.53,-140.99 390.53,-140.99"/>
<polygon fill="black" stroke="black" points="387.03,-140.99 390.53,-150.99 394.03,-140.99 387.03,-140.99"/>
</g>
<!-- PetAddComponent  -->
<g id="node7" class="node">
<title>PetAddComponent </title>
<polygon fill="#fb8072" stroke="black" points="623.33,-252 496.67,-252 496.67,-216 623.33,-216 623.33,-252"/>
<text text-anchor="middle" x="560" y="-229.8" font-family="Times,serif" font-size="14.00">PetAddComponent </text>
</g>
<!-- PetsModule&#45;&gt;PetAddComponent  -->
<g id="edge6" class="edge">
<title>PetsModule&#45;&gt;PetAddComponent </title>
<path fill="none" stroke="black" stroke-dasharray="5,2" d="M457.56,-178C487.24,-178 521.93,-178 521.93,-178 521.93,-178 521.93,-205.97 521.93,-205.97"/>
<polygon fill="black" stroke="black" points="518.43,-205.97 521.93,-215.97 525.43,-205.97 518.43,-205.97"/>
</g>
<!-- PetEditComponent  -->
<g id="node8" class="node">
<title>PetEditComponent </title>
<polygon fill="#fb8072" stroke="black" points="479.05,-252 352.95,-252 352.95,-216 479.05,-216 479.05,-252"/>
<text text-anchor="middle" x="416" y="-229.8" font-family="Times,serif" font-size="14.00">PetEditComponent </text>
</g>
<!-- PetsModule&#45;&gt;PetEditComponent  -->
<g id="edge7" class="edge">
<title>PetsModule&#45;&gt;PetEditComponent </title>
<path fill="none" stroke="black" stroke-dasharray="5,2" d="M416,-187.11C416,-187.11 416,-205.99 416,-205.99"/>
<polygon fill="black" stroke="black" points="412.5,-205.99 416,-215.99 419.5,-205.99 412.5,-205.99"/>
</g>
<!-- PetListComponent  -->
<g id="node9" class="node">
<title>PetListComponent </title>
<polygon fill="#fb8072" stroke="black" points="335.5,-252 210.5,-252 210.5,-216 335.5,-216 335.5,-252"/>
<text text-anchor="middle" x="273" y="-229.8" font-family="Times,serif" font-size="14.00">PetListComponent </text>
</g>
<!-- PetsModule&#45;&gt;PetListComponent  -->
<g id="edge8" class="edge">
<title>PetsModule&#45;&gt;PetListComponent </title>
<path fill="none" stroke="black" stroke-dasharray="5,2" d="M374.56,-178C344.97,-178 310.38,-178 310.38,-178 310.38,-178 310.38,-205.97 310.38,-205.97"/>
<polygon fill="black" stroke="black" points="306.88,-205.97 310.38,-215.97 313.88,-205.97 306.88,-205.97"/>
</g>
<!-- PetsRoutingModule -->
<g id="node5" class="node">
<title>PetsRoutingModule</title>
<polygon fill="#8dd3c7" stroke="black" points="262,-122 259,-126 238,-126 235,-122 134,-122 134,-86 262,-86 262,-122"/>
<text text-anchor="middle" x="198" y="-99.8" font-family="Times,serif" font-size="14.00">PetsRoutingModule</text>
</g>
<!-- PetsRoutingModule&#45;&gt;PetsModule -->
<g id="edge4" class="edge">
<title>PetsRoutingModule&#45;&gt;PetsModule</title>
<path fill="none" stroke="black" d="M236.38,-122.03C236.38,-138.4 236.38,-160 236.38,-160 236.38,-160 364.34,-160 364.34,-160"/>
<polygon fill="black" stroke="black" points="364.34,-163.5 374.34,-160 364.34,-156.5 364.34,-163.5"/>
</g>
<!-- VisitsModule -->
<g id="node6" class="node">
<title>VisitsModule</title>
<polygon fill="#8dd3c7" stroke="black" points="116.22,-122 113.22,-126 92.22,-126 89.22,-122 23.78,-122 23.78,-86 116.22,-86 116.22,-122"/>
<text text-anchor="middle" x="70" y="-99.8" font-family="Times,serif" font-size="14.00">VisitsModule</text>
</g>
<!-- VisitsModule&#45;&gt;PetsModule -->
<g id="edge5" class="edge">
<title>VisitsModule&#45;&gt;PetsModule</title>
<path fill="none" stroke="black" d="M70,-122.11C70,-141.34 70,-169 70,-169 70,-169 364.61,-169 364.61,-169"/>
<polygon fill="black" stroke="black" points="364.61,-172.5 374.61,-169 364.61,-165.5 364.61,-172.5"/>
</g>
<!-- PetService -->
<g id="node10" class="node">
<title>PetService</title>
<ellipse fill="#fdb462" stroke="black" cx="765" cy="-104" rx="52.16" ry="18"/>
<text text-anchor="middle" x="765" y="-99.8" font-family="Times,serif" font-size="14.00">PetService</text>
</g>
<!-- PetService&#45;&gt;PetsModule -->
<g id="edge9" class="edge">
<title>PetService&#45;&gt;PetsModule</title>
<path fill="none" stroke="black" d="M765,-122.11C765,-141.34 765,-169 765,-169 765,-169 467.41,-169 467.41,-169"/>
<polygon fill="black" stroke="black" points="467.41,-165.5 457.41,-169 467.41,-172.5 467.41,-165.5"/>
</g>
</g>
</svg>
