<?xml version="1.0" encoding="UTF-8" standalone="no"?>
<!DOCTYPE svg PUBLIC "-//W3C//DTD SVG 1.1//EN"
 "http://www.w3.org/Graphics/SVG/1.1/DTD/svg11.dtd">
<!-- Generated by graphviz version 2.44.1 (20200629.0846)
 -->
<!-- Title: dependencies Pages: 1 -->
<svg width="752pt" height="284pt"
 viewBox="0.00 0.00 752.00 284.00" xmlns="http://www.w3.org/2000/svg" xmlns:xlink="http://www.w3.org/1999/xlink">
<g id="graph0" class="graph" transform="scale(1 1) rotate(0) translate(4 280)">
<title>dependencies</title>
<polygon fill="white" stroke="transparent" points="-4,4 -4,-280 748,-280 748,4 -4,4"/>
<text text-anchor="start" x="351.01" y="-42.4" font-family="sans-serif" font-weight="bold" font-size="14.00">Legend</text>
<polygon fill="#ffffb3" stroke="transparent" points="138,-10 138,-30 158,-30 158,-10 138,-10"/>
<text text-anchor="start" x="161.63" y="-15.4" font-family="sans-serif" font-size="14.00"> &#160;Declarations</text>
<polygon fill="#8dd3c7" stroke="transparent" points="251,-10 251,-30 271,-30 271,-10 251,-10"/>
<text text-anchor="start" x="274.73" y="-15.4" font-family="sans-serif" font-size="14.00"> &#160;Module</text>
<polygon fill="#80b1d3" stroke="transparent" points="337,-10 337,-30 357,-30 357,-10 337,-10"/>
<text text-anchor="start" x="360.78" y="-15.4" font-family="sans-serif" font-size="14.00"> &#160;Bootstrap</text>
<polygon fill="#fdb462" stroke="transparent" points="434,-10 434,-30 454,-30 454,-10 434,-10"/>
<text text-anchor="start" x="457.67" y="-15.4" font-family="sans-serif" font-size="14.00"> &#160;Providers</text>
<polygon fill="#fb8072" stroke="transparent" points="530,-10 530,-30 550,-30 550,-10 530,-10"/>
<text text-anchor="start" x="553.73" y="-15.4" font-family="sans-serif" font-size="14.00"> &#160;Exports</text>
<g id="clust1" class="cluster">
<title>cluster_VetsModule</title>
<polygon fill="none" stroke="black" stroke-dasharray="1,5" points="8,-70 8,-268 736,-268 736,-70 8,-70"/>
</g>
<g id="clust2" class="cluster">
<title>cluster_VetsModule_declarations</title>
<polygon fill="none" stroke="black" points="302,-78 302,-130 728,-130 728,-78 302,-78"/>
</g>
<g id="clust9" class="cluster">
<title>cluster_VetsModule_providers</title>
<polygon fill="none" stroke="black" points="170,-78 170,-130 294,-130 294,-78 170,-78"/>
</g>
<g id="clust7" class="cluster">
<title>cluster_VetsModule_exports</title>
<polygon fill="none" stroke="black" points="155,-208 155,-260 592,-260 592,-208 155,-208"/>
</g>
<g id="clust6" class="cluster">
<title>cluster_VetsModule_imports</title>
<polygon fill="none" stroke="black" points="16,-78 16,-130 162,-130 162,-78 16,-78"/>
</g>
<!-- VetAddComponent -->
<g id="node1" class="node">
<title>VetAddComponent</title>
<polygon fill="#ffffb3" stroke="black" points="719.65,-122 594.35,-122 594.35,-86 719.65,-86 719.65,-122"/>
<text text-anchor="middle" x="657" y="-99.8" font-family="Times,serif" font-size="14.00">VetAddComponent</text>
</g>
<!-- VetsModule -->
<g id="node4" class="node">
<title>VetsModule</title>
<polygon fill="#8dd3c7" stroke="black" points="414.71,-187 411.71,-191 390.71,-191 387.71,-187 329.29,-187 329.29,-151 414.71,-151 414.71,-187"/>
<text text-anchor="middle" x="372" y="-164.8" font-family="Times,serif" font-size="14.00">VetsModule</text>
</g>
<!-- VetAddComponent&#45;&gt;VetsModule -->
<g id="edge1" class="edge">
<title>VetAddComponent&#45;&gt;VetsModule</title>
<path fill="none" stroke="black" d="M657,-122.11C657,-141.34 657,-169 657,-169 657,-169 424.67,-169 424.67,-169"/>
<polygon fill="black" stroke="black" points="424.67,-165.5 414.67,-169 424.67,-172.5 424.67,-165.5"/>
</g>
<!-- VetEditComponent -->
<g id="node2" class="node">
<title>VetEditComponent</title>
<polygon fill="#ffffb3" stroke="black" points="576.38,-122 451.62,-122 451.62,-86 576.38,-86 576.38,-122"/>
<text text-anchor="middle" x="514" y="-99.8" font-family="Times,serif" font-size="14.00">VetEditComponent</text>
</g>
<!-- VetEditComponent&#45;&gt;VetsModule -->
<g id="edge2" class="edge">
<title>VetEditComponent&#45;&gt;VetsModule</title>
<path fill="none" stroke="black" d="M535.77,-122.03C535.77,-138.4 535.77,-160 535.77,-160 535.77,-160 425.03,-160 425.03,-160"/>
<polygon fill="black" stroke="black" points="425.03,-156.5 415.03,-160 425.03,-163.5 425.03,-156.5"/>
</g>
<!-- VetListComponent -->
<g id="node3" class="node">
<title>VetListComponent</title>
<polygon fill="#ffffb3" stroke="black" points="433.82,-122 310.18,-122 310.18,-86 433.82,-86 433.82,-122"/>
<text text-anchor="middle" x="372" y="-99.8" font-family="Times,serif" font-size="14.00">VetListComponent</text>
</g>
<!-- VetListComponent&#45;&gt;VetsModule -->
<g id="edge3" class="edge">
<title>VetListComponent&#45;&gt;VetsModule</title>
<path fill="none" stroke="black" d="M372,-122.11C372,-122.11 372,-140.99 372,-140.99"/>
<polygon fill="black" stroke="black" points="368.5,-140.99 372,-150.99 375.5,-140.99 368.5,-140.99"/>
</g>
<!-- VetAddComponent  -->
<g id="node6" class="node">
<title>VetAddComponent </title>
<polygon fill="#fb8072" stroke="black" points="583.65,-252 454.35,-252 454.35,-216 583.65,-216 583.65,-252"/>
<text text-anchor="middle" x="519" y="-229.8" font-family="Times,serif" font-size="14.00">VetAddComponent </text>
</g>
<!-- VetsModule&#45;&gt;VetAddComponent  -->
<g id="edge5" class="edge">
<title>VetsModule&#45;&gt;VetAddComponent </title>
<path fill="none" stroke="black" stroke-dasharray="5,2" d="M414.71,-178C450.26,-178 495.1,-178 495.1,-178 495.1,-178 495.1,-205.97 495.1,-205.97"/>
<polygon fill="black" stroke="black" points="491.6,-205.97 495.1,-215.97 498.6,-205.97 491.6,-205.97"/>
</g>
<!-- VetEditComponent  -->
<g id="node7" class="node">
<title>VetEditComponent </title>
<polygon fill="#fb8072" stroke="black" points="436.38,-252 307.62,-252 307.62,-216 436.38,-216 436.38,-252"/>
<text text-anchor="middle" x="372" y="-229.8" font-family="Times,serif" font-size="14.00">VetEditComponent </text>
</g>
<!-- VetsModule&#45;&gt;VetEditComponent  -->
<g id="edge6" class="edge">
<title>VetsModule&#45;&gt;VetEditComponent </title>
<path fill="none" stroke="black" stroke-dasharray="5,2" d="M372,-187.11C372,-187.11 372,-205.99 372,-205.99"/>
<polygon fill="black" stroke="black" points="368.5,-205.99 372,-215.99 375.5,-205.99 368.5,-205.99"/>
</g>
<!-- VetListComponent  -->
<g id="node8" class="node">
<title>VetListComponent </title>
<polygon fill="#fb8072" stroke="black" points="289.32,-252 162.68,-252 162.68,-216 289.32,-216 289.32,-252"/>
<text text-anchor="middle" x="226" y="-229.8" font-family="Times,serif" font-size="14.00">VetListComponent </text>
</g>
<!-- VetsModule&#45;&gt;VetListComponent  -->
<g id="edge7" class="edge">
<title>VetsModule&#45;&gt;VetListComponent </title>
<path fill="none" stroke="black" stroke-dasharray="5,2" d="M329.25,-178C282.46,-178 214.02,-178 214.02,-178 214.02,-178 214.02,-205.97 214.02,-205.97"/>
<polygon fill="black" stroke="black" points="210.52,-205.97 214.02,-215.97 217.52,-205.97 210.52,-205.97"/>
</g>
<!-- VetsRoutingModule -->
<g id="node5" class="node">
<title>VetsRoutingModule</title>
<polygon fill="#8dd3c7" stroke="black" points="154.32,-122 151.32,-126 130.32,-126 127.32,-122 23.68,-122 23.68,-86 154.32,-86 154.32,-122"/>
<text text-anchor="middle" x="89" y="-99.8" font-family="Times,serif" font-size="14.00">VetsRoutingModule</text>
</g>
<!-- VetsRoutingModule&#45;&gt;VetsModule -->
<g id="edge4" class="edge">
<title>VetsRoutingModule&#45;&gt;VetsModule</title>
<path fill="none" stroke="black" d="M89,-122.11C89,-141.34 89,-169 89,-169 89,-169 319.33,-169 319.33,-169"/>
<polygon fill="black" stroke="black" points="319.33,-172.5 329.33,-169 319.33,-165.5 319.33,-172.5"/>
</g>
<!-- VetService -->
<g id="node9" class="node">
<title>VetService</title>
<ellipse fill="#fdb462" stroke="black" cx="232" cy="-104" rx="53.87" ry="18"/>
<text text-anchor="middle" x="232" y="-99.8" font-family="Times,serif" font-size="14.00">VetService</text>
</g>
<!-- VetService&#45;&gt;VetsModule -->
<g id="edge8" class="edge">
<title>VetService&#45;&gt;VetsModule</title>
<path fill="none" stroke="black" d="M249.98,-121.11C249.98,-137.57 249.98,-160 249.98,-160 249.98,-160 319.32,-160 319.32,-160"/>
<polygon fill="black" stroke="black" points="319.32,-163.5 329.32,-160 319.32,-156.5 319.32,-163.5"/>
</g>
</g>
</svg>
