<?xml version="1.0" encoding="UTF-8" standalone="no"?>
<!DOCTYPE svg PUBLIC "-//W3C//DTD SVG 1.1//EN"
 "http://www.w3.org/Graphics/SVG/1.1/DTD/svg11.dtd">
<!-- Generated by graphviz version 2.44.1 (20200629.0846)
 -->
<!-- Title: dependencies Pages: 1 -->
<svg width="1308pt" height="284pt"
 viewBox="0.00 0.00 1308.00 284.00" xmlns="http://www.w3.org/2000/svg" xmlns:xlink="http://www.w3.org/1999/xlink">
<g id="graph0" class="graph" transform="scale(1 1) rotate(0) translate(4 280)">
<title>dependencies</title>
<polygon fill="white" stroke="transparent" points="-4,4 -4,-280 1304,-280 1304,4 -4,4"/>
<text text-anchor="start" x="629.01" y="-42.4" font-family="sans-serif" font-weight="bold" font-size="14.00">Legend</text>
<polygon fill="#ffffb3" stroke="transparent" points="416,-10 416,-30 436,-30 436,-10 416,-10"/>
<text text-anchor="start" x="439.63" y="-15.4" font-family="sans-serif" font-size="14.00"> &#160;Declarations</text>
<polygon fill="#8dd3c7" stroke="transparent" points="529,-10 529,-30 549,-30 549,-10 529,-10"/>
<text text-anchor="start" x="552.73" y="-15.4" font-family="sans-serif" font-size="14.00"> &#160;Module</text>
<polygon fill="#80b1d3" stroke="transparent" points="615,-10 615,-30 635,-30 635,-10 615,-10"/>
<text text-anchor="start" x="638.78" y="-15.4" font-family="sans-serif" font-size="14.00"> &#160;Bootstrap</text>
<polygon fill="#fdb462" stroke="transparent" points="712,-10 712,-30 732,-30 732,-10 712,-10"/>
<text text-anchor="start" x="735.67" y="-15.4" font-family="sans-serif" font-size="14.00"> &#160;Providers</text>
<polygon fill="#fb8072" stroke="transparent" points="808,-10 808,-30 828,-30 828,-10 808,-10"/>
<text text-anchor="start" x="831.73" y="-15.4" font-family="sans-serif" font-size="14.00"> &#160;Exports</text>
<g id="clust1" class="cluster">
<title>cluster_AppModule</title>
<polygon fill="none" stroke="black" stroke-dasharray="1,5" points="8,-70 8,-268 1292,-268 1292,-70 8,-70"/>
</g>
<g id="clust2" class="cluster">
<title>cluster_AppModule_declarations</title>
<polygon fill="none" stroke="black" points="1162,-78 1162,-130 1284,-130 1284,-78 1162,-78"/>
</g>
<g id="clust6" class="cluster">
<title>cluster_AppModule_bootstrap</title>
<polygon fill="none" stroke="black" points="530,-208 530,-260 654,-260 654,-208 530,-208"/>
</g>
<g id="clust7" class="cluster">
<title>cluster_AppModule_providers</title>
<polygon fill="none" stroke="black" points="978,-78 978,-130 1154,-130 1154,-78 978,-78"/>
</g>
<g id="clust4" class="cluster">
<title>cluster_AppModule_imports</title>
<polygon fill="none" stroke="black" points="16,-78 16,-130 970,-130 970,-78 16,-78"/>
</g>
<!-- AppComponent -->
<g id="node1" class="node">
<title>AppComponent</title>
<polygon fill="#ffffb3" stroke="black" points="1275.94,-122 1170.06,-122 1170.06,-86 1275.94,-86 1275.94,-122"/>
<text text-anchor="middle" x="1223" y="-99.8" font-family="Times,serif" font-size="14.00">AppComponent</text>
</g>
<!-- AppModule -->
<g id="node2" class="node">
<title>AppModule</title>
<polygon fill="#8dd3c7" stroke="black" points="633.66,-187 630.66,-191 609.66,-191 606.66,-187 550.34,-187 550.34,-151 633.66,-151 633.66,-187"/>
<text text-anchor="middle" x="592" y="-164.8" font-family="Times,serif" font-size="14.00">AppModule</text>
</g>
<!-- AppComponent&#45;&gt;AppModule -->
<g id="edge1" class="edge">
<title>AppComponent&#45;&gt;AppModule</title>
<path fill="none" stroke="black" d="M1223,-122.01C1223,-144.49 1223,-180 1223,-180 1223,-180 643.89,-180 643.89,-180"/>
<polygon fill="black" stroke="black" points="643.89,-176.5 633.89,-180 643.89,-183.5 643.89,-176.5"/>
</g>
<!-- AppComponent  -->
<g id="node11" class="node">
<title>AppComponent </title>
<polygon fill="#80b1d3" stroke="black" points="646.44,-252 537.56,-252 537.56,-216 646.44,-216 646.44,-252"/>
<text text-anchor="middle" x="592" y="-229.8" font-family="Times,serif" font-size="14.00">AppComponent </text>
</g>
<!-- AppModule&#45;&gt;AppComponent  -->
<g id="edge10" class="edge">
<title>AppModule&#45;&gt;AppComponent </title>
<path fill="none" stroke="black" stroke-dasharray="1,5" d="M592,-187.11C592,-187.11 592,-205.99 592,-205.99"/>
<polygon fill="black" stroke="black" points="588.5,-205.99 592,-215.99 595.5,-205.99 588.5,-205.99"/>
</g>
<!-- AppRoutingModule -->
<g id="node3" class="node">
<title>AppRoutingModule</title>
<polygon fill="#8dd3c7" stroke="black" points="962.27,-122 959.27,-126 938.27,-126 935.27,-122 833.73,-122 833.73,-86 962.27,-86 962.27,-122"/>
<text text-anchor="middle" x="898" y="-99.8" font-family="Times,serif" font-size="14.00">AppRoutingModule</text>
</g>
<!-- AppRoutingModule&#45;&gt;AppModule -->
<g id="edge2" class="edge">
<title>AppRoutingModule&#45;&gt;AppModule</title>
<path fill="none" stroke="black" d="M898,-122.27C898,-140.56 898,-166 898,-166 898,-166 643.91,-166 643.91,-166"/>
<polygon fill="black" stroke="black" points="643.91,-162.5 633.91,-166 643.91,-169.5 643.91,-162.5"/>
</g>
<!-- OwnersModule -->
<g id="node4" class="node">
<title>OwnersModule</title>
<polygon fill="#8dd3c7" stroke="black" points="815.58,-122 812.58,-126 791.58,-126 788.58,-122 712.42,-122 712.42,-86 815.58,-86 815.58,-122"/>
<text text-anchor="middle" x="764" y="-99.8" font-family="Times,serif" font-size="14.00">OwnersModule</text>
</g>
<!-- OwnersModule&#45;&gt;AppModule -->
<g id="edge3" class="edge">
<title>OwnersModule&#45;&gt;AppModule</title>
<path fill="none" stroke="black" d="M764,-122.01C764,-138.05 764,-159 764,-159 764,-159 644.08,-159 644.08,-159"/>
<polygon fill="black" stroke="black" points="644.08,-155.5 634.08,-159 644.08,-162.5 644.08,-155.5"/>
</g>
<!-- PartsModule -->
<g id="node5" class="node">
<title>PartsModule</title>
<polygon fill="#8dd3c7" stroke="black" points="694.54,-122 691.54,-126 670.54,-126 667.54,-122 607.46,-122 607.46,-86 694.54,-86 694.54,-122"/>
<text text-anchor="middle" x="651" y="-99.8" font-family="Times,serif" font-size="14.00">PartsModule</text>
</g>
<!-- PartsModule&#45;&gt;AppModule -->
<g id="edge4" class="edge">
<title>PartsModule&#45;&gt;AppModule</title>
<path fill="none" stroke="black" d="M620.53,-122.11C620.53,-122.11 620.53,-140.99 620.53,-140.99"/>
<polygon fill="black" stroke="black" points="617.03,-140.99 620.53,-150.99 624.03,-140.99 617.03,-140.99"/>
</g>
<!-- PetTypesModule -->
<g id="node6" class="node">
<title>PetTypesModule</title>
<polygon fill="#8dd3c7" stroke="black" points="588.65,-122 585.65,-126 564.65,-126 561.65,-122 477.35,-122 477.35,-86 588.65,-86 588.65,-122"/>
<text text-anchor="middle" x="533" y="-99.8" font-family="Times,serif" font-size="14.00">PetTypesModule</text>
</g>
<!-- PetTypesModule&#45;&gt;AppModule -->
<g id="edge5" class="edge">
<title>PetTypesModule&#45;&gt;AppModule</title>
<path fill="none" stroke="black" d="M569.5,-122.11C569.5,-122.11 569.5,-140.99 569.5,-140.99"/>
<polygon fill="black" stroke="black" points="566,-140.99 569.5,-150.99 573,-140.99 566,-140.99"/>
</g>
<!-- PetsModule -->
<g id="node7" class="node">
<title>PetsModule</title>
<polygon fill="#8dd3c7" stroke="black" points="459.38,-122 456.38,-126 435.38,-126 432.38,-122 376.62,-122 376.62,-86 459.38,-86 459.38,-122"/>
<text text-anchor="middle" x="418" y="-99.8" font-family="Times,serif" font-size="14.00">PetsModule</text>
</g>
<!-- PetsModule&#45;&gt;AppModule -->
<g id="edge6" class="edge">
<title>PetsModule&#45;&gt;AppModule</title>
<path fill="none" stroke="black" d="M418,-122.01C418,-138.05 418,-159 418,-159 418,-159 540.32,-159 540.32,-159"/>
<polygon fill="black" stroke="black" points="540.32,-162.5 550.32,-159 540.32,-155.5 540.32,-162.5"/>
</g>
<!-- SpecialtiesModule -->
<g id="node8" class="node">
<title>SpecialtiesModule</title>
<polygon fill="#8dd3c7" stroke="black" points="358.2,-122 355.2,-126 334.2,-126 331.2,-122 237.8,-122 237.8,-86 358.2,-86 358.2,-122"/>
<text text-anchor="middle" x="298" y="-99.8" font-family="Times,serif" font-size="14.00">SpecialtiesModule</text>
</g>
<!-- SpecialtiesModule&#45;&gt;AppModule -->
<g id="edge7" class="edge">
<title>SpecialtiesModule&#45;&gt;AppModule</title>
<path fill="none" stroke="black" d="M298,-122.27C298,-140.56 298,-166 298,-166 298,-166 540.19,-166 540.19,-166"/>
<polygon fill="black" stroke="black" points="540.19,-169.5 550.19,-166 540.19,-162.5 540.19,-169.5"/>
</g>
<!-- VetsModule -->
<g id="node9" class="node">
<title>VetsModule</title>
<polygon fill="#8dd3c7" stroke="black" points="219.71,-122 216.71,-126 195.71,-126 192.71,-122 134.29,-122 134.29,-86 219.71,-86 219.71,-122"/>
<text text-anchor="middle" x="177" y="-99.8" font-family="Times,serif" font-size="14.00">VetsModule</text>
</g>
<!-- VetsModule&#45;&gt;AppModule -->
<g id="edge8" class="edge">
<title>VetsModule&#45;&gt;AppModule</title>
<path fill="none" stroke="black" d="M177,-122.13C177,-142.57 177,-173 177,-173 177,-173 540.31,-173 540.31,-173"/>
<polygon fill="black" stroke="black" points="540.31,-176.5 550.31,-173 540.31,-169.5 540.31,-176.5"/>
</g>
<!-- VisitsModule -->
<g id="node10" class="node">
<title>VisitsModule</title>
<polygon fill="#8dd3c7" stroke="black" points="116.22,-122 113.22,-126 92.22,-126 89.22,-122 23.78,-122 23.78,-86 116.22,-86 116.22,-122"/>
<text text-anchor="middle" x="70" y="-99.8" font-family="Times,serif" font-size="14.00">VisitsModule</text>
</g>
<!-- VisitsModule&#45;&gt;AppModule -->
<g id="edge9" class="edge">
<title>VisitsModule&#45;&gt;AppModule</title>
<path fill="none" stroke="black" d="M70,-122.01C70,-144.49 70,-180 70,-180 70,-180 540.16,-180 540.16,-180"/>
<polygon fill="black" stroke="black" points="540.16,-183.5 550.16,-180 540.16,-176.5 540.16,-183.5"/>
</g>
<!-- HttpErrorHandler -->
<g id="node12" class="node">
<title>HttpErrorHandler</title>
<ellipse fill="#fdb462" stroke="black" cx="1066" cy="-104" rx="79.85" ry="18"/>
<text text-anchor="middle" x="1066" y="-99.8" font-family="Times,serif" font-size="14.00">HttpErrorHandler</text>
</g>
<!-- HttpErrorHandler&#45;&gt;AppModule -->
<g id="edge11" class="edge">
<title>HttpErrorHandler&#45;&gt;AppModule</title>
<path fill="none" stroke="black" d="M1066,-122.13C1066,-142.57 1066,-173 1066,-173 1066,-173 644.06,-173 644.06,-173"/>
<polygon fill="black" stroke="black" points="644.06,-169.5 634.06,-173 644.06,-176.5 644.06,-169.5"/>
</g>
</g>
</svg>
