<?xml version="1.0" encoding="UTF-8" standalone="no"?>
<!DOCTYPE svg PUBLIC "-//W3C//DTD SVG 1.1//EN"
 "http://www.w3.org/Graphics/SVG/1.1/DTD/svg11.dtd">
<!-- Generated by graphviz version 2.44.1 (20200629.0846)
 -->
<!-- Title: dependencies Pages: 1 -->
<svg width="928pt" height="284pt"
 viewBox="0.00 0.00 928.00 284.00" xmlns="http://www.w3.org/2000/svg" xmlns:xlink="http://www.w3.org/1999/xlink">
<g id="graph0" class="graph" transform="scale(1 1) rotate(0) translate(4 280)">
<title>dependencies</title>
<polygon fill="white" stroke="transparent" points="-4,4 -4,-280 924,-280 924,4 -4,4"/>
<text text-anchor="start" x="439.01" y="-42.4" font-family="sans-serif" font-weight="bold" font-size="14.00">Legend</text>
<polygon fill="#ffffb3" stroke="transparent" points="226,-10 226,-30 246,-30 246,-10 226,-10"/>
<text text-anchor="start" x="249.63" y="-15.4" font-family="sans-serif" font-size="14.00"> &#160;Declarations</text>
<polygon fill="#8dd3c7" stroke="transparent" points="339,-10 339,-30 359,-30 359,-10 339,-10"/>
<text text-anchor="start" x="362.73" y="-15.4" font-family="sans-serif" font-size="14.00"> &#160;Module</text>
<polygon fill="#80b1d3" stroke="transparent" points="425,-10 425,-30 445,-30 445,-10 425,-10"/>
<text text-anchor="start" x="448.78" y="-15.4" font-family="sans-serif" font-size="14.00"> &#160;Bootstrap</text>
<polygon fill="#fdb462" stroke="transparent" points="522,-10 522,-30 542,-30 542,-10 522,-10"/>
<text text-anchor="start" x="545.67" y="-15.4" font-family="sans-serif" font-size="14.00"> &#160;Providers</text>
<polygon fill="#fb8072" stroke="transparent" points="618,-10 618,-30 638,-30 638,-10 618,-10"/>
<text text-anchor="start" x="641.73" y="-15.4" font-family="sans-serif" font-size="14.00"> &#160;Exports</text>
<g id="clust1" class="cluster">
<title>cluster_SpecialtiesModule</title>
<polygon fill="none" stroke="black" stroke-dasharray="1,5" points="8,-70 8,-268 912,-268 912,-70 8,-70"/>
</g>
<g id="clust2" class="cluster">
<title>cluster_SpecialtiesModule_declarations</title>
<polygon fill="none" stroke="black" points="382,-78 382,-130 904,-130 904,-78 382,-78"/>
</g>
<g id="clust6" class="cluster">
<title>cluster_SpecialtiesModule_imports</title>
<polygon fill="none" stroke="black" points="192,-78 192,-130 374,-130 374,-78 192,-78"/>
</g>
<g id="clust9" class="cluster">
<title>cluster_SpecialtiesModule_providers</title>
<polygon fill="none" stroke="black" points="16,-78 16,-130 184,-130 184,-78 16,-78"/>
</g>
<g id="clust7" class="cluster">
<title>cluster_SpecialtiesModule_exports</title>
<polygon fill="none" stroke="black" points="381,-208 381,-260 555,-260 555,-208 381,-208"/>
</g>
<!-- SpecialtyAddComponent -->
<g id="node1" class="node">
<title>SpecialtyAddComponent</title>
<polygon fill="#ffffb3" stroke="black" points="895.54,-122 738.46,-122 738.46,-86 895.54,-86 895.54,-122"/>
<text text-anchor="middle" x="817" y="-99.8" font-family="Times,serif" font-size="14.00">SpecialtyAddComponent</text>
</g>
<!-- SpecialtiesModule -->
<g id="node4" class="node">
<title>SpecialtiesModule</title>
<polygon fill="#8dd3c7" stroke="black" points="528.2,-187 525.2,-191 504.2,-191 501.2,-187 407.8,-187 407.8,-151 528.2,-151 528.2,-187"/>
<text text-anchor="middle" x="468" y="-164.8" font-family="Times,serif" font-size="14.00">SpecialtiesModule</text>
</g>
<!-- SpecialtyAddComponent&#45;&gt;SpecialtiesModule -->
<g id="edge1" class="edge">
<title>SpecialtyAddComponent&#45;&gt;SpecialtiesModule</title>
<path fill="none" stroke="black" d="M817,-122.28C817,-143.32 817,-175 817,-175 817,-175 538.39,-175 538.39,-175"/>
<polygon fill="black" stroke="black" points="538.39,-171.5 528.39,-175 538.39,-178.5 538.39,-171.5"/>
</g>
<!-- SpecialtyEditComponent -->
<g id="node2" class="node">
<title>SpecialtyEditComponent</title>
<polygon fill="#ffffb3" stroke="black" points="720.26,-122 563.74,-122 563.74,-86 720.26,-86 720.26,-122"/>
<text text-anchor="middle" x="642" y="-99.8" font-family="Times,serif" font-size="14.00">SpecialtyEditComponent</text>
</g>
<!-- SpecialtyEditComponent&#45;&gt;SpecialtiesModule -->
<g id="edge2" class="edge">
<title>SpecialtyEditComponent&#45;&gt;SpecialtiesModule</title>
<path fill="none" stroke="black" d="M642,-122.02C642,-139.37 642,-163 642,-163 642,-163 538.37,-163 538.37,-163"/>
<polygon fill="black" stroke="black" points="538.37,-159.5 528.37,-163 538.37,-166.5 538.37,-159.5"/>
</g>
<!-- SpecialtyListComponent -->
<g id="node3" class="node">
<title>SpecialtyListComponent</title>
<polygon fill="#ffffb3" stroke="black" points="545.71,-122 390.29,-122 390.29,-86 545.71,-86 545.71,-122"/>
<text text-anchor="middle" x="468" y="-99.8" font-family="Times,serif" font-size="14.00">SpecialtyListComponent</text>
</g>
<!-- SpecialtyListComponent&#45;&gt;SpecialtiesModule -->
<g id="edge3" class="edge">
<title>SpecialtyListComponent&#45;&gt;SpecialtiesModule</title>
<path fill="none" stroke="black" d="M468,-122.11C468,-122.11 468,-140.99 468,-140.99"/>
<polygon fill="black" stroke="black" points="464.5,-140.99 468,-150.99 471.5,-140.99 464.5,-140.99"/>
</g>
<!-- SpecialtyListComponent  -->
<g id="node6" class="node">
<title>SpecialtyListComponent </title>
<polygon fill="#fb8072" stroke="black" points="547.21,-252 388.79,-252 388.79,-216 547.21,-216 547.21,-252"/>
<text text-anchor="middle" x="468" y="-229.8" font-family="Times,serif" font-size="14.00">SpecialtyListComponent </text>
</g>
<!-- SpecialtiesModule&#45;&gt;SpecialtyListComponent  -->
<g id="edge5" class="edge">
<title>SpecialtiesModule&#45;&gt;SpecialtyListComponent </title>
<path fill="none" stroke="black" stroke-dasharray="5,2" d="M468,-187.11C468,-187.11 468,-205.99 468,-205.99"/>
<polygon fill="black" stroke="black" points="464.5,-205.99 468,-215.99 471.5,-205.99 464.5,-205.99"/>
</g>
<!-- SpecialtiesRoutingModule -->
<g id="node5" class="node">
<title>SpecialtiesRoutingModule</title>
<polygon fill="#8dd3c7" stroke="black" points="365.82,-122 362.82,-126 341.82,-126 338.82,-122 200.18,-122 200.18,-86 365.82,-86 365.82,-122"/>
<text text-anchor="middle" x="283" y="-99.8" font-family="Times,serif" font-size="14.00">SpecialtiesRoutingModule</text>
</g>
<!-- SpecialtiesRoutingModule&#45;&gt;SpecialtiesModule -->
<g id="edge4" class="edge">
<title>SpecialtiesRoutingModule&#45;&gt;SpecialtiesModule</title>
<path fill="none" stroke="black" d="M283,-122.02C283,-139.37 283,-163 283,-163 283,-163 397.68,-163 397.68,-163"/>
<polygon fill="black" stroke="black" points="397.68,-166.5 407.68,-163 397.68,-159.5 397.68,-166.5"/>
</g>
<!-- SpecialtyService -->
<g id="node7" class="node">
<title>SpecialtyService</title>
<ellipse fill="#fdb462" stroke="black" cx="100" cy="-104" rx="75.86" ry="18"/>
<text text-anchor="middle" x="100" y="-99.8" font-family="Times,serif" font-size="14.00">SpecialtyService</text>
</g>
<!-- SpecialtyService&#45;&gt;SpecialtiesModule -->
<g id="edge6" class="edge">
<title>SpecialtyService&#45;&gt;SpecialtiesModule</title>
<path fill="none" stroke="black" d="M100,-122.28C100,-143.32 100,-175 100,-175 100,-175 397.64,-175 397.64,-175"/>
<polygon fill="black" stroke="black" points="397.64,-178.5 407.64,-175 397.64,-171.5 397.64,-178.5"/>
</g>
</g>
</svg>
