<?xml version="1.0" encoding="UTF-8" standalone="no"?>
<!DOCTYPE svg PUBLIC "-//W3C//DTD SVG 1.1//EN"
 "http://www.w3.org/Graphics/SVG/1.1/DTD/svg11.dtd">
<!-- Generated by graphviz version 2.44.1 (20200629.0846)
 -->
<!-- Title: dependencies Pages: 1 -->
<svg width="936pt" height="284pt"
 viewBox="0.00 0.00 936.00 284.00" xmlns="http://www.w3.org/2000/svg" xmlns:xlink="http://www.w3.org/1999/xlink">
<g id="graph0" class="graph" transform="scale(1 1) rotate(0) translate(4 280)">
<title>dependencies</title>
<polygon fill="white" stroke="transparent" points="-4,4 -4,-280 932,-280 932,4 -4,4"/>
<text text-anchor="start" x="443.01" y="-42.4" font-family="sans-serif" font-weight="bold" font-size="14.00">Legend</text>
<polygon fill="#ffffb3" stroke="transparent" points="230,-10 230,-30 250,-30 250,-10 230,-10"/>
<text text-anchor="start" x="253.63" y="-15.4" font-family="sans-serif" font-size="14.00"> &#160;Declarations</text>
<polygon fill="#8dd3c7" stroke="transparent" points="343,-10 343,-30 363,-30 363,-10 343,-10"/>
<text text-anchor="start" x="366.73" y="-15.4" font-family="sans-serif" font-size="14.00"> &#160;Module</text>
<polygon fill="#80b1d3" stroke="transparent" points="429,-10 429,-30 449,-30 449,-10 429,-10"/>
<text text-anchor="start" x="452.78" y="-15.4" font-family="sans-serif" font-size="14.00"> &#160;Bootstrap</text>
<polygon fill="#fdb462" stroke="transparent" points="526,-10 526,-30 546,-30 546,-10 526,-10"/>
<text text-anchor="start" x="549.67" y="-15.4" font-family="sans-serif" font-size="14.00"> &#160;Providers</text>
<polygon fill="#fb8072" stroke="transparent" points="622,-10 622,-30 642,-30 642,-10 622,-10"/>
<text text-anchor="start" x="645.73" y="-15.4" font-family="sans-serif" font-size="14.00"> &#160;Exports</text>
<g id="clust1" class="cluster">
<title>cluster_VisitsModule</title>
<polygon fill="none" stroke="black" stroke-dasharray="1,5" points="8,-70 8,-268 920,-268 920,-70 8,-70"/>
</g>
<g id="clust2" class="cluster">
<title>cluster_VisitsModule_declarations</title>
<polygon fill="none" stroke="black" points="466,-78 466,-130 912,-130 912,-78 466,-78"/>
</g>
<g id="clust6" class="cluster">
<title>cluster_VisitsModule_imports</title>
<polygon fill="none" stroke="black" points="158,-78 158,-130 458,-130 458,-78 158,-78"/>
</g>
<g id="clust9" class="cluster">
<title>cluster_VisitsModule_providers</title>
<polygon fill="none" stroke="black" points="16,-78 16,-130 150,-130 150,-78 16,-78"/>
</g>
<g id="clust7" class="cluster">
<title>cluster_VisitsModule_exports</title>
<polygon fill="none" stroke="black" points="234,-208 234,-260 692,-260 692,-208 234,-208"/>
</g>
<!-- VisitAddComponent -->
<g id="node1" class="node">
<title>VisitAddComponent</title>
<polygon fill="#ffffb3" stroke="black" points="904.16,-122 771.84,-122 771.84,-86 904.16,-86 904.16,-122"/>
<text text-anchor="middle" x="838" y="-99.8" font-family="Times,serif" font-size="14.00">VisitAddComponent</text>
</g>
<!-- VisitsModule -->
<g id="node4" class="node">
<title>VisitsModule</title>
<polygon fill="#8dd3c7" stroke="black" points="508.22,-187 505.22,-191 484.22,-191 481.22,-187 415.78,-187 415.78,-151 508.22,-151 508.22,-187"/>
<text text-anchor="middle" x="462" y="-164.8" font-family="Times,serif" font-size="14.00">VisitsModule</text>
</g>
<!-- VisitAddComponent&#45;&gt;VisitsModule -->
<g id="edge1" class="edge">
<title>VisitAddComponent&#45;&gt;VisitsModule</title>
<path fill="none" stroke="black" d="M838,-122.11C838,-141.34 838,-169 838,-169 838,-169 518.48,-169 518.48,-169"/>
<polygon fill="black" stroke="black" points="518.48,-165.5 508.48,-169 518.48,-172.5 518.48,-165.5"/>
</g>
<!-- VisitEditComponent -->
<g id="node2" class="node">
<title>VisitEditComponent</title>
<polygon fill="#ffffb3" stroke="black" points="753.89,-122 622.11,-122 622.11,-86 753.89,-86 753.89,-122"/>
<text text-anchor="middle" x="688" y="-99.8" font-family="Times,serif" font-size="14.00">VisitEditComponent</text>
</g>
<!-- VisitEditComponent&#45;&gt;VisitsModule -->
<g id="edge2" class="edge">
<title>VisitEditComponent&#45;&gt;VisitsModule</title>
<path fill="none" stroke="black" d="M653.07,-122.03C653.07,-138.4 653.07,-160 653.07,-160 653.07,-160 518.25,-160 518.25,-160"/>
<polygon fill="black" stroke="black" points="518.25,-156.5 508.25,-160 518.25,-163.5 518.25,-156.5"/>
</g>
<!-- VisitListComponent -->
<g id="node3" class="node">
<title>VisitListComponent</title>
<polygon fill="#ffffb3" stroke="black" points="604.33,-122 473.67,-122 473.67,-86 604.33,-86 604.33,-122"/>
<text text-anchor="middle" x="539" y="-99.8" font-family="Times,serif" font-size="14.00">VisitListComponent</text>
</g>
<!-- VisitListComponent&#45;&gt;VisitsModule -->
<g id="edge3" class="edge">
<title>VisitListComponent&#45;&gt;VisitsModule</title>
<path fill="none" stroke="black" d="M490.97,-122.11C490.97,-122.11 490.97,-140.99 490.97,-140.99"/>
<polygon fill="black" stroke="black" points="487.47,-140.99 490.97,-150.99 494.47,-140.99 487.47,-140.99"/>
</g>
<!-- VisitAddComponent  -->
<g id="node7" class="node">
<title>VisitAddComponent </title>
<polygon fill="#fb8072" stroke="black" points="684.16,-252 547.84,-252 547.84,-216 684.16,-216 684.16,-252"/>
<text text-anchor="middle" x="616" y="-229.8" font-family="Times,serif" font-size="14.00">VisitAddComponent </text>
</g>
<!-- VisitsModule&#45;&gt;VisitAddComponent  -->
<g id="edge6" class="edge">
<title>VisitsModule&#45;&gt;VisitAddComponent </title>
<path fill="none" stroke="black" stroke-dasharray="5,2" d="M508.39,-178C539.96,-178 576.04,-178 576.04,-178 576.04,-178 576.04,-205.97 576.04,-205.97"/>
<polygon fill="black" stroke="black" points="572.54,-205.97 576.04,-215.97 579.54,-205.97 572.54,-205.97"/>
</g>
<!-- VisitEditComponent  -->
<g id="node8" class="node">
<title>VisitEditComponent </title>
<polygon fill="#fb8072" stroke="black" points="529.89,-252 394.11,-252 394.11,-216 529.89,-216 529.89,-252"/>
<text text-anchor="middle" x="462" y="-229.8" font-family="Times,serif" font-size="14.00">VisitEditComponent </text>
</g>
<!-- VisitsModule&#45;&gt;VisitEditComponent  -->
<g id="edge7" class="edge">
<title>VisitsModule&#45;&gt;VisitEditComponent </title>
<path fill="none" stroke="black" stroke-dasharray="5,2" d="M462,-187.11C462,-187.11 462,-205.99 462,-205.99"/>
<polygon fill="black" stroke="black" points="458.5,-205.99 462,-215.99 465.5,-205.99 458.5,-205.99"/>
</g>
<!-- VisitListComponent  -->
<g id="node9" class="node">
<title>VisitListComponent </title>
<polygon fill="#fb8072" stroke="black" points="375.83,-252 242.17,-252 242.17,-216 375.83,-216 375.83,-252"/>
<text text-anchor="middle" x="309" y="-229.8" font-family="Times,serif" font-size="14.00">VisitListComponent </text>
</g>
<!-- VisitsModule&#45;&gt;VisitListComponent  -->
<g id="edge8" class="edge">
<title>VisitsModule&#45;&gt;VisitListComponent </title>
<path fill="none" stroke="black" stroke-dasharray="5,2" d="M415.7,-178C384.48,-178 348.96,-178 348.96,-178 348.96,-178 348.96,-205.97 348.96,-205.97"/>
<polygon fill="black" stroke="black" points="345.46,-205.97 348.96,-215.97 352.46,-205.97 345.46,-205.97"/>
</g>
<!-- PetsRoutingModule -->
<g id="node5" class="node">
<title>PetsRoutingModule</title>
<polygon fill="#8dd3c7" stroke="black" points="450,-122 447,-126 426,-126 423,-122 322,-122 322,-86 450,-86 450,-122"/>
<text text-anchor="middle" x="386" y="-99.8" font-family="Times,serif" font-size="14.00">PetsRoutingModule</text>
</g>
<!-- PetsRoutingModule&#45;&gt;VisitsModule -->
<g id="edge4" class="edge">
<title>PetsRoutingModule&#45;&gt;VisitsModule</title>
<path fill="none" stroke="black" d="M432.95,-122.11C432.95,-122.11 432.95,-140.99 432.95,-140.99"/>
<polygon fill="black" stroke="black" points="429.45,-140.99 432.95,-150.99 436.45,-140.99 429.45,-140.99"/>
</g>
<!-- VisitsRoutingModule -->
<g id="node6" class="node">
<title>VisitsRoutingModule</title>
<polygon fill="#8dd3c7" stroke="black" points="303.84,-122 300.84,-126 279.84,-126 276.84,-122 166.16,-122 166.16,-86 303.84,-86 303.84,-122"/>
<text text-anchor="middle" x="235" y="-99.8" font-family="Times,serif" font-size="14.00">VisitsRoutingModule</text>
</g>
<!-- VisitsRoutingModule&#45;&gt;VisitsModule -->
<g id="edge5" class="edge">
<title>VisitsRoutingModule&#45;&gt;VisitsModule</title>
<path fill="none" stroke="black" d="M272.88,-122.03C272.88,-138.4 272.88,-160 272.88,-160 272.88,-160 405.73,-160 405.73,-160"/>
<polygon fill="black" stroke="black" points="405.73,-163.5 415.73,-160 405.73,-156.5 405.73,-163.5"/>
</g>
<!-- VisitService -->
<g id="node10" class="node">
<title>VisitService</title>
<ellipse fill="#fdb462" stroke="black" cx="83" cy="-104" rx="58.54" ry="18"/>
<text text-anchor="middle" x="83" y="-99.8" font-family="Times,serif" font-size="14.00">VisitService</text>
</g>
<!-- VisitService&#45;&gt;VisitsModule -->
<g id="edge9" class="edge">
<title>VisitService&#45;&gt;VisitsModule</title>
<path fill="none" stroke="black" d="M83,-122.11C83,-141.34 83,-169 83,-169 83,-169 405.53,-169 405.53,-169"/>
<polygon fill="black" stroke="black" points="405.53,-172.5 415.53,-169 405.53,-165.5 405.53,-172.5"/>
</g>
</g>
</svg>
