<?xml version="1.0" encoding="UTF-8" standalone="no"?>
<!DOCTYPE svg PUBLIC "-//W3C//DTD SVG 1.1//EN"
 "http://www.w3.org/Graphics/SVG/1.1/DTD/svg11.dtd">
<!-- Generated by graphviz version 2.44.1 (20200629.0846)
 -->
<!-- Title: dependencies Pages: 1 -->
<svg width="1121pt" height="211pt"
 viewBox="0.00 0.00 1121.00 211.00" xmlns="http://www.w3.org/2000/svg" xmlns:xlink="http://www.w3.org/1999/xlink">
<g id="graph0" class="graph" transform="scale(1 1) rotate(0) translate(4 207)">
<title>dependencies</title>
<polygon fill="white" stroke="transparent" points="-4,4 -4,-207 1117,-207 1117,4 -4,4"/>
<text text-anchor="start" x="535.51" y="-42.4" font-family="sans-serif" font-weight="bold" font-size="14.00">Legend</text>
<polygon fill="#ffffb3" stroke="transparent" points="322.5,-10 322.5,-30 342.5,-30 342.5,-10 322.5,-10"/>
<text text-anchor="start" x="346.13" y="-15.4" font-family="sans-serif" font-size="14.00"> &#160;Declarations</text>
<polygon fill="#8dd3c7" stroke="transparent" points="435.5,-10 435.5,-30 455.5,-30 455.5,-10 435.5,-10"/>
<text text-anchor="start" x="459.23" y="-15.4" font-family="sans-serif" font-size="14.00"> &#160;Module</text>
<polygon fill="#80b1d3" stroke="transparent" points="521.5,-10 521.5,-30 541.5,-30 541.5,-10 521.5,-10"/>
<text text-anchor="start" x="545.28" y="-15.4" font-family="sans-serif" font-size="14.00"> &#160;Bootstrap</text>
<polygon fill="#fdb462" stroke="transparent" points="618.5,-10 618.5,-30 638.5,-30 638.5,-10 618.5,-10"/>
<text text-anchor="start" x="642.17" y="-15.4" font-family="sans-serif" font-size="14.00"> &#160;Providers</text>
<polygon fill="#fb8072" stroke="transparent" points="714.5,-10 714.5,-30 734.5,-30 734.5,-10 714.5,-10"/>
<text text-anchor="start" x="738.23" y="-15.4" font-family="sans-serif" font-size="14.00"> &#160;Exports</text>
<g id="clust1" class="cluster">
<title>cluster_OwnersModule</title>
<polygon fill="none" stroke="black" stroke-dasharray="1,5" points="8,-70 8,-195 1105,-195 1105,-70 8,-70"/>
</g>
<g id="clust10" class="cluster">
<title>cluster_OwnersModule_providers</title>
<polygon fill="none" stroke="black" points="949,-78 949,-130 1097,-130 1097,-78 949,-78"/>
</g>
<g id="clust7" class="cluster">
<title>cluster_OwnersModule_imports</title>
<polygon fill="none" stroke="black" points="676,-78 676,-130 941,-130 941,-78 676,-78"/>
</g>
<g id="clust2" class="cluster">
<title>cluster_OwnersModule_declarations</title>
<polygon fill="none" stroke="black" points="16,-78 16,-130 668,-130 668,-78 16,-78"/>
</g>
<!-- OwnerAddComponent -->
<g id="node1" class="node">
<title>OwnerAddComponent</title>
<polygon fill="#ffffb3" stroke="black" points="659.53,-122 516.47,-122 516.47,-86 659.53,-86 659.53,-122"/>
<text text-anchor="middle" x="588" y="-99.8" font-family="Times,serif" font-size="14.00">OwnerAddComponent</text>
</g>
<!-- OwnersModule -->
<g id="node5" class="node">
<title>OwnersModule</title>
<polygon fill="#8dd3c7" stroke="black" points="639.58,-187 636.58,-191 615.58,-191 612.58,-187 536.42,-187 536.42,-151 639.58,-151 639.58,-187"/>
<text text-anchor="middle" x="588" y="-164.8" font-family="Times,serif" font-size="14.00">OwnersModule</text>
</g>
<!-- OwnerAddComponent&#45;&gt;OwnersModule -->
<g id="edge1" class="edge">
<title>OwnerAddComponent&#45;&gt;OwnersModule</title>
<path fill="none" stroke="black" d="M588,-122.11C588,-122.11 588,-140.99 588,-140.99"/>
<polygon fill="black" stroke="black" points="584.5,-140.99 588,-150.99 591.5,-140.99 584.5,-140.99"/>
</g>
<!-- OwnerDetailComponent -->
<g id="node2" class="node">
<title>OwnerDetailComponent</title>
<polygon fill="#ffffb3" stroke="black" points="497.63,-122 344.37,-122 344.37,-86 497.63,-86 497.63,-122"/>
<text text-anchor="middle" x="421" y="-99.8" font-family="Times,serif" font-size="14.00">OwnerDetailComponent</text>
</g>
<!-- OwnerDetailComponent&#45;&gt;OwnersModule -->
<g id="edge2" class="edge">
<title>OwnerDetailComponent&#45;&gt;OwnersModule</title>
<path fill="none" stroke="black" d="M421,-122.03C421,-138.4 421,-160 421,-160 421,-160 526.08,-160 526.08,-160"/>
<polygon fill="black" stroke="black" points="526.08,-163.5 536.08,-160 526.08,-156.5 526.08,-163.5"/>
</g>
<!-- OwnerEditComponent -->
<g id="node3" class="node">
<title>OwnerEditComponent</title>
<polygon fill="#ffffb3" stroke="black" points="326.25,-122 183.75,-122 183.75,-86 326.25,-86 326.25,-122"/>
<text text-anchor="middle" x="255" y="-99.8" font-family="Times,serif" font-size="14.00">OwnerEditComponent</text>
</g>
<!-- OwnerEditComponent&#45;&gt;OwnersModule -->
<g id="edge3" class="edge">
<title>OwnerEditComponent&#45;&gt;OwnersModule</title>
<path fill="none" stroke="black" d="M255,-122.11C255,-141.34 255,-169 255,-169 255,-169 526.33,-169 526.33,-169"/>
<polygon fill="black" stroke="black" points="526.33,-172.5 536.33,-169 526.33,-165.5 526.33,-172.5"/>
</g>
<!-- OwnerListComponent -->
<g id="node4" class="node">
<title>OwnerListComponent</title>
<polygon fill="#ffffb3" stroke="black" points="165.7,-122 24.3,-122 24.3,-86 165.7,-86 165.7,-122"/>
<text text-anchor="middle" x="95" y="-99.8" font-family="Times,serif" font-size="14.00">OwnerListComponent</text>
</g>
<!-- OwnerListComponent&#45;&gt;OwnersModule -->
<g id="edge4" class="edge">
<title>OwnerListComponent&#45;&gt;OwnersModule</title>
<path fill="none" stroke="black" d="M95,-122.29C95,-144.21 95,-178 95,-178 95,-178 526.17,-178 526.17,-178"/>
<polygon fill="black" stroke="black" points="526.17,-181.5 536.17,-178 526.17,-174.5 526.17,-181.5"/>
</g>
<!-- OwnersRoutingModule -->
<g id="node6" class="node">
<title>OwnersRoutingModule</title>
<polygon fill="#8dd3c7" stroke="black" points="933.2,-122 930.2,-126 909.2,-126 906.2,-122 784.8,-122 784.8,-86 933.2,-86 933.2,-122"/>
<text text-anchor="middle" x="859" y="-99.8" font-family="Times,serif" font-size="14.00">OwnersRoutingModule</text>
</g>
<!-- OwnersRoutingModule&#45;&gt;OwnersModule -->
<g id="edge5" class="edge">
<title>OwnersRoutingModule&#45;&gt;OwnersModule</title>
<path fill="none" stroke="black" d="M859,-122.11C859,-141.34 859,-169 859,-169 859,-169 649.61,-169 649.61,-169"/>
<polygon fill="black" stroke="black" points="649.61,-165.5 639.61,-169 649.61,-172.5 649.61,-165.5"/>
</g>
<!-- PetsModule -->
<g id="node7" class="node">
<title>PetsModule</title>
<polygon fill="#8dd3c7" stroke="black" points="766.38,-122 763.38,-126 742.38,-126 739.38,-122 683.62,-122 683.62,-86 766.38,-86 766.38,-122"/>
<text text-anchor="middle" x="725" y="-99.8" font-family="Times,serif" font-size="14.00">PetsModule</text>
</g>
<!-- PetsModule&#45;&gt;OwnersModule -->
<g id="edge6" class="edge">
<title>PetsModule&#45;&gt;OwnersModule</title>
<path fill="none" stroke="black" d="M725,-122.03C725,-138.4 725,-160 725,-160 725,-160 649.79,-160 649.79,-160"/>
<polygon fill="black" stroke="black" points="649.79,-156.5 639.79,-160 649.79,-163.5 649.79,-156.5"/>
</g>
<!-- OwnerService -->
<g id="node8" class="node">
<title>OwnerService</title>
<ellipse fill="#fdb462" stroke="black" cx="1023" cy="-104" rx="66.03" ry="18"/>
<text text-anchor="middle" x="1023" y="-99.8" font-family="Times,serif" font-size="14.00">OwnerService</text>
</g>
<!-- OwnerService&#45;&gt;OwnersModule -->
<g id="edge7" class="edge">
<title>OwnerService&#45;&gt;OwnersModule</title>
<path fill="none" stroke="black" d="M1023,-122.29C1023,-144.21 1023,-178 1023,-178 1023,-178 649.61,-178 649.61,-178"/>
<polygon fill="black" stroke="black" points="649.61,-174.5 639.61,-178 649.61,-181.5 649.61,-174.5"/>
</g>
</g>
</svg>
